<?xml version="1.0" standalone="no"?>
<!DOCTYPE svg PUBLIC "-//W3C//DTD SVG 20010904//EN"
 "http://www.w3.org/TR/2001/REC-SVG-20010904/DTD/svg10.dtd">
<svg version="1.0" xmlns="http://www.w3.org/2000/svg"
 width="300.000000pt" height="300.000000pt" viewBox="0 0 300.000000 300.000000"
 preserveAspectRatio="xMidYMid meet">

<g transform="translate(0.000000,300.000000) scale(0.100000,-0.100000)"
fill="#000000" stroke="none">
<path d="M0 2432 l0 -569 33 -17 c32 -17 32 -17 156 33 150 61 180 64 227 17
44 -44 44 -72 -2 -232 l-36 -125 71 -83 c93 -111 121 -154 121 -185 0 -32 -32
-86 -59 -100 -11 -6 -84 -14 -164 -17 l-144 -7 -69 -110 c-38 -60 -84 -122
-101 -136 l-33 -26 0 -437 0 -438 520 0 521 0 75 58 c63 49 74 61 70 82 -3 14
-8 77 -11 141 -8 133 2 167 57 195 48 25 85 13 211 -71 l116 -78 128 52 c154
61 182 64 229 17 44 -44 44 -72 -2 -232 -34 -120 -35 -126 -18 -145 16 -18 36
-19 561 -19 l543 0 0 440 0 440 -35 0 c-59 0 -88 38 -142 184 l-48 130 -135
34 c-148 37 -185 59 -196 118 -10 54 18 92 136 184 96 74 109 88 106 110 -3
14 -8 77 -11 141 -8 133 2 167 57 195 45 23 86 13 170 -44 40 -26 79 -52 86
-56 9 -6 12 109 12 558 l0 566 -540 0 c-297 0 -540 -3 -540 -6 0 -4 22 -32 49
-63 70 -81 101 -130 101 -160 0 -32 -32 -86 -59 -100 -11 -6 -84 -14 -164 -17
l-144 -7 -69 -110 c-82 -130 -110 -157 -165 -157 -64 0 -91 34 -146 184 l-48
130 -135 34 c-103 25 -141 39 -162 59 -55 53 -43 131 29 186 l36 27 -521 0
-522 0 0 -568z"/>
</g>
</svg>
