<svg version="1.0" xmlns="http://www.w3.org/2000/svg" width="300.000000pt" height="300.000000pt" viewBox="0 0 300.000000 300.000000" preserveAspectRatio="xMidYMid meet">

<g transform="translate(0.000000,300.000000) scale(0.100000,-0.100000)" fill="#000000" stroke="none">
<path d="M1007 2973 c-72 -55 -84 -133 -29 -186 21 -20 59 -34 162 -59 l135
-34 48 -130 c55 -149 82 -184 146 -184 54 0 78 23 162 154 l72 113 144 6 c79
4 152 11 164 17 27 15 59 69 59 101 0 29 -29 74 -105 167 l-50 61 -436 0 -436
1 -36 -27z" data-index="0" style="visibility: visible; opacity: 1; fill: rgb(255, 255, 255);"></path>
<path d="M2728 1975 c-50 -28 -60 -64 -53 -189 3 -61 8 -124 10 -141 4 -28 -3
-36 -105 -115 -118 -92 -146 -130 -136 -184 11 -59 48 -81 196 -118 l135 -34
48 -130 c54 -146 83 -184 142 -184 l35 0 0 493 0 494 -87 58 c-94 63 -140 75
-185 50z" data-index="1" style="visibility: visible; opacity: 1; fill: rgb(255, 255, 255);"></path>
<path d="M185 1879 c-107 -44 -123 -48 -145 -37 -14 7 -28 14 -32 16 -5 2 -8
-218 -8 -488 l0 -492 22 14 c13 8 59 68 103 135 l79 120 143 6 c79 4 152 11
164 17 27 15 59 69 59 101 0 31 -28 74 -121 185 l-71 83 36 125 c46 160 46
188 2 232 -47 47 -82 44 -231 -17z" data-index="2" style="visibility: visible; opacity: 1; fill: rgb(255, 255, 255);"></path>
<path d="M1228 475 c-50 -28 -60 -64 -53 -189 3 -61 8 -125 10 -141 5 -28 -1
-35 -65 -84 -38 -29 -70 -55 -70 -57 0 -2 194 -4 432 -4 425 0 431 0 414 19
-17 19 -16 25 18 145 46 160 46 188 2 232 -47 47 -75 44 -229 -17 l-128 -52
-116 78 c-125 83 -167 97 -215 70z" data-index="3" style="visibility: visible; opacity: 1; fill: rgb(255, 255, 255);"></path>
</g>
</svg>